<?xml version="1.0" encoding="utf-8"?>
<!-- Generator: Adobe Illustrator 23.0.6, SVG Export Plug-In . SVG Version: 6.00 Build 0)  -->
<svg version="1.1" id="_x34_04-error" xmlns="http://www.w3.org/2000/svg" xmlns:xlink="http://www.w3.org/1999/xlink" x="0px"
	 y="0px" viewBox="0 0 569.9 487" style="enable-background:new 0 0 569.9 487;" xml:space="preserve">
<style type="text/css">
	.st0{fill:#E0CCC9;}
	.st1{fill:#BC918B;}
	.st2{fill:#9B7875;}
	.st3{fill:#A66E66;}
	.st4{fill:#915C54;}
	.st5{fill:#9D645B;}
	.st6{fill:#2E323A;}
	.st7{fill:#F4F1EF;}
	.st8{fill:#404751;}
	.st9{fill:#5D6A75;}
	.st10{opacity:0.2;fill:#01305A;enable-background:new    ;}
	.st11{fill:#F5EFEB;}
	.st12{opacity:0.1;fill:#01305A;enable-background:new    ;}
	.st13{fill:#505766;}
	.st14{fill:#7C8593;}
</style>
<g id="objects">
	<g id="light-shapes">
		<g>
			<path class="st0" d="M266.9,141.4c-15.4-55.8-84.7-73.8-124.5-32.1c-0.6,0.6-1.1,1.2-1.7,1.8c-57,61.9-30.1,214.5,88.8,253.2
				s242.6-32,249.5-95.1s-47.9-83-133-65.3C297.9,213.9,276.5,176.1,266.9,141.4z"/>
			<path class="st0" d="M386.9,154.2c-15.9,2.6-20.3,16.7-8,26.7c4.1,3.3,9.9,6.1,18.1,7.4c31.5,5.2,48.2-8.7,35.5-26.7
				C424.7,150.5,402.6,151.7,386.9,154.2z"/>
			<path class="st0" d="M97.7,248.4c-9.9-12.7-24.4-9.8-27.3,5.7c-1,5.1-0.6,11.6,2.2,19.5c10.5,30.1,30.7,38.1,40.5,18.4
				C119.2,279.8,107.5,261,97.7,248.4z"/>
			<path class="st0" d="M314.4,126.1l1.7-8.4l-7.9-1.5c0-2.1-0.4-4.2-1-6.2l6.5-4.4l-4.8-7.1l-6.2,4.2c-1.9-1.9-4-3.3-6.4-4.3
				l1.6-7.9l-8.4-1.7l-1.6,8.1c-1.7,0.1-3.4,0.4-5.1,1l-4.4-6.5l-7.1,4.8l4.2,6.2c-1.9,1.9-3.3,4-4.3,6.4l-6.9-1.4l-1.7,8.4l7.1,1.4
				c0.1,2.2,0.6,4.4,1.5,6.5l-6.2,4.2l4.8,7.1l6.5-4.4c1.9,1.6,4,2.8,6.3,3.6l-1.6,7.9l8.4,1.7l1.7-8.6c1.9-0.2,3.7-0.7,5.5-1.4
				l4.2,6.2l7.1-4.8l-4.4-6.5c1.2-1.3,2.1-2.8,2.9-4.4L314.4,126.1z M293.3,122.7c-3.6,2.4-8.5,1.5-10.9-2.1s-1.5-8.5,2.1-10.9
				s8.5-1.5,10.9,2.1C297.8,115.4,296.9,120.3,293.3,122.7z"/>
			<path class="st0" d="M266.8,87.4l0.9-4.6l-4.3-0.8c0-1.1-0.2-2.3-0.6-3.4l3.6-2.4l-2.6-3.9l-3.4,2.3c-1-1-2.2-1.8-3.5-2.3
				l0.8-4.3l-4.6-0.9l-0.9,4.4c-0.9,0.1-1.9,0.2-2.8,0.5l-2.4-3.6l-3.9,2.6l2.3,3.4c-1,1-1.8,2.2-2.3,3.5l-3.8-0.7l-0.9,4.6l3.9,0.8
				c0.1,1.2,0.3,2.4,0.8,3.6l-3.4,2.3l2.6,3.9l3.6-2.4c1,0.9,2.2,1.6,3.4,2l-0.9,4.3l4.6,0.9l0.9-4.7c1-0.1,2-0.4,3-0.8l2.3,3.4
				l3.9-2.6l-2.4-3.6c0.6-0.7,1.2-1.5,1.6-2.4L266.8,87.4z M255.3,85.5c-2,1.3-4.6,0.8-6-1.2c-1.3-2-0.8-4.6,1.2-6
				c2-1.3,4.6-0.8,6,1.2C257.7,81.5,257.2,84.2,255.3,85.5z"/>
			<path class="st0" d="M498.4,110.9l0.9-4.6l-4.3-0.8c0-1.1-0.2-2.3-0.6-3.4l3.6-2.4l-2.6-3.9l-3.4,2.3c-1-1-2.2-1.8-3.5-2.3
				l0.8-4.3l-4.6-0.9l-0.9,4.4c-0.9,0.1-1.9,0.2-2.8,0.5l-2.4-3.6l-3.9,2.6L477,98c-1,1-1.8,2.2-2.3,3.5l-3.8-0.7l-0.9,4.6l3.9,0.8
				c0.1,1.2,0.3,2.4,0.8,3.6l-3.4,2.3l2.6,3.9l3.6-2.4c1,0.9,2.2,1.6,3.4,2l-0.9,4.3l4.6,0.9l0.9-4.7c1-0.1,2-0.4,3-0.8l2.3,3.4
				l3.9-2.6l-2.4-3.6c0.6-0.7,1.2-1.5,1.6-2.4L498.4,110.9z M486.8,109c-2,1.3-4.6,0.8-6-1.2c-1.3-2-0.8-4.6,1.2-6
				c2-1.3,4.6-0.8,6,1.2C489.3,105,488.8,107.7,486.8,109z"/>
			<path class="st0" d="M104.7,168.1l0.9-4.6l-4.3-0.8c0-1.1-0.2-2.3-0.6-3.4l3.6-2.4l-2.6-3.9l-3.4,2.3c-1-1-2.2-1.8-3.5-2.3
				l0.8-4.3l-4.6-1l-0.9,4.4c-0.9,0.1-1.9,0.2-2.8,0.5l-2.3-3.4l-3.9,2.6l2.3,3.4c-1,1-1.8,2.2-2.3,3.5l-3.8-0.7l-0.9,4.6l3.9,0.8
				c0.1,1.2,0.3,2.4,0.8,3.6l-3.4,2.3l2.6,3.9l3.6-2.4c1,0.9,2.2,1.6,3.4,2l-0.9,4.3L91,178l0.9-4.7c1-0.1,2-0.4,3-0.8l2.3,3.4
				l3.9-2.6l-2.4-3.6c0.6-0.7,1.2-1.5,1.6-2.4L104.7,168.1z M93.1,166.3c-2,1.3-4.6,0.8-6-1.2c-1.3-2-0.8-4.6,1.2-6
				c2-1.3,4.6-0.8,6,1.2C95.6,162.3,95.1,164.9,93.1,166.3z"/>
		</g>
	</g>
	<path id="shape-bottom" class="st0" d="M284.5,399.1c-76.5,0-143.4-3.5-179.6-8.8c-3.8-0.5-5,5.3-1.3,6.4
		c24.8,7.4,59.8,7.9,82.2,10.5c38.6,4.3,94.7,3.2,98.6,17.4c3.9,14.2,4.3,29.2-35,27.1c-42.7-2.3-35.6-27.1-35.6-27.1
		c-39.6,1.3-133.8-8.5-144.3-25.4c-10.3-16.7,8.6-20.7,9-20.7l0,0c15.9-8.5,102.1-15,205.8-15c115.2,0,208.5,7.9,208.5,17.9
		C492.9,391.2,399.6,399.1,284.5,399.1z"/>
	<g id="plants">
		<g>
			<path class="st1" d="M142.4,348.2c-9.2-9.2-29.2-30.9-41.8-55.4c-18.1-35.3-36.2-32.1-39.8-19.6c-9.2,32.2,45,67.3,67.5,80.2
				L142.4,348.2z"/>
			<g>
				<path class="st2" d="M137.5,350.1c-15.8-11.8-29.1-25.8-38.2-36.4c-12.1-14.1-19.4-25.3-19.5-25.4c-0.3-0.4-0.8-0.5-1.2-0.3
					c-0.4,0.3-0.5,0.8-0.3,1.2c0.1,0.1,7.4,11.4,19.6,25.6c9,10.4,22.1,24.2,37.6,36L137.5,350.1z"/>
			</g>
		</g>
		<g>
			<path class="st3" d="M140.2,335.8c-4.2-8.5-12.3-26.2-15.3-44.3c-4.5-27-17-28.8-22-21.3c-13.7,20.4,19.1,58.1,29.5,69.2
				L140.2,335.8z"/>
			<g>
				<path class="st4" d="M137.2,337.2c-8-11.2-13.8-23.3-17.6-32.2c-5-11.9-7.4-20.8-7.5-20.8c-0.1-0.3-0.4-0.5-0.7-0.4
					c-0.3,0.1-0.5,0.4-0.4,0.7c0,0.1,2.5,9.1,7.5,21c3.8,8.9,9.6,21.1,17.6,32.3L137.2,337.2z"/>
			</g>
		</g>
		<g>
			<path class="st1" d="M440.4,211.2c8.4-9.9,26.8-33,37.5-58.4c15.4-36.5,33.7-34.7,38.2-22.6c11.6,31.4-39.8,70.4-61.3,85
				L440.4,211.2z"/>
			<g>
				<path class="st2" d="M445.4,212.6c14.9-13,27.1-28,35.4-39.2c11-15,17.5-26.7,17.5-26.8c0.2-0.4,0.8-0.6,1.2-0.3
					c0.4,0.2,0.6,0.8,0.3,1.2c-0.1,0.1-6.6,11.9-17.6,27c-8.1,11.1-20.2,25.8-34.8,38.7L445.4,212.6z"/>
			</g>
		</g>
		<g>
			<path class="st3" d="M441.7,198.7c3.6-8.8,10.3-27,11.9-45.3c2.4-27.3,14.8-30,20.4-22.9c15.1,19.4-14.7,59.3-24.2,71.2
				L441.7,198.7z"/>
			<g>
				<g>
					<g>
						<path class="st4" d="M444.7,199.8c7.1-11.7,12.1-24.3,15.1-33.5c4.1-12.2,5.9-21.3,5.9-21.3c0.1-0.3,0.4-0.5,0.7-0.5
							c0.3,0.1,0.5,0.4,0.5,0.7c0,0.1-1.8,9.2-5.9,21.5c-3.1,9.2-8,21.7-15.1,33.5L444.7,199.8z"/>
					</g>
				</g>
			</g>
		</g>
		<path class="st3" d="M184,107.8c1.6-14.7,0.3-29-7-25.5s-4.8,28,5.2,44.1l2.1,6.3c-7.1-11.9-21.2-22-27-18.2
			c-5.8,3.7,4.2,9.6,14.3,13.4c7.6,2.9,12,6.6,14,8.6l9.8,29.8c-11.2-18.8-33.5-34.7-42.7-28.7c-9.1,5.9,6.7,15.2,22.6,21.3
			c12,4.6,18.9,10.3,22.1,13.6l2,5.9c1.1-0.2,2.2-0.4,3.2-0.6L191,142.6c0.8-3,2.3-7.2,5.4-12c5.8-9,10.3-19.7,3.5-19.3
			c-5.9,0.4-10.7,12.7-11,24.9l-4-12.2C184.2,119.9,183.3,114.2,184,107.8z"/>
		<path class="st3" d="M489.8,282.8c4-14.3,10.4-27.1,15.9-21.1s-5.9,27.8-21.1,39.1l-4.3,5.1c11-8.4,27.8-12.6,31.8-7
			s-7.5,7.4-18.2,7.2c-8.2-0.1-13.5,1.7-16.2,2.9l-20.1,24c17.4-13.3,44-19.8,50.3-10.9c6.3,8.9-11.9,11.7-28.9,11.4
			c-12.9-0.2-21.4,2.6-25.6,4.5l-4,4.8c-0.9-0.6-1.9-1.1-2.8-1.7l24-28.6c0.4-3.1,0.5-7.6-0.6-13.2c-2-10.5-2.3-22.1,3.9-19.2
			c5.4,2.5,5.3,15.7,1.1,27.2l8.3-9.9C485.1,293.9,488,289,489.8,282.8z"/>
		<g>
			<g>
				<g>
					<path class="st3" d="M156.1,260.4h16.5c-8.9-1.5-30.9-10.9-32.9-29.9c-2.5-24-11.1-23.7-25.5-26.3
						c-14.4-2.5-18.4,1.6-27.6-17.1s-29.6-21-29.6-21s18.6,20.3,15.1,35.8c-3.6,15.4,8.8,21.6,18.7,23.6c9.9,1.9,7.5,15.2,11.3,23.8
						c1.7,3.9,8.7,7.9,15.9,11.2h38.1L156.1,260.4L156.1,260.4z"/>
				</g>
			</g>
			<g>
				<g>
					<g>
						<path class="st4" d="M120.4,236.8c0.7,7.2,4.9,15.8,11.1,22.9c0.2,0.3,0.4,0.5,0.7,0.8h1.9c-0.5-0.6-1-1.1-1.5-1.7
							c-5.9-6.8-10.1-15.3-10.7-22.1c-1.1-10.9-9.5-18.3-27.2-24c-10.3-3.3-13.6-15.9-13.6-16c-0.1-0.4-0.5-0.6-0.8-0.5
							c-0.4,0.1-0.6,0.5-0.5,0.8c0.1,0.5,3.5,13.4,14.5,17C111.3,219.5,119.4,226.5,120.4,236.8z"/>
					</g>
				</g>
			</g>
		</g>
		<g>
			<g>
				<g>
					<path class="st1" d="M147.6,260.4h34.6v-0.1c1-3.5,1.5-7,1.6-10.6c0.4-12.1,0.6-42.5-7.2-50.3c-9.8-9.8-29.6-13.6-27-28.4
						c2.6-14.8,0.7-35.2-22.7-38.5S85.3,92.4,85.3,92.4s-7.7,29.6,13.3,52.3s13.2,26,8.9,47.4s-9.2,33.1,22.8,49.4
						C139.2,246,144.5,252.9,147.6,260.4z"/>
				</g>
			</g>
			<g>
				<g>
					<path class="st2" d="M129.8,169.5c-1.5,27.7,4.2,43.3,18.7,50.7c9.1,4.6,18.7,14.9,25,26.8c2,3.8,4,8.3,5.6,13.5h2.1
						c-1.6-5.6-3.8-10.5-5.9-14.5c-6.6-12.5-16.3-22.8-25.9-27.6c-13.7-6.9-19.1-21.9-17.6-48.7c1-17.2-15.2-28.7-15.8-29.2
						c-0.5-0.3-1.1-0.2-1.4,0.3s-0.2,1.1,0.2,1.4C115,142.1,130.7,153.4,129.8,169.5z"/>
				</g>
			</g>
		</g>
		<g>
			<g>
				<g>
					<path class="st3" d="M349.4,205.6h16.9l17.1-11.1c4.2-6.6,7.9-13.8,7.2-18c-1.5-9.2-10.8-19-3.5-26.1c7.2-7,14.2-18.9,2.8-29.9
						c-11.4-11-6.9-38.2-6.9-38.2s-15.9,13.1-13.4,33.7s-3.1,19.4-13.8,29.4c-10.7,10-18.1,14.4-7,35.9
						C353,189.3,352.1,198,349.4,205.6z"/>
				</g>
			</g>
			<g>
				<g>
					<g>
						<path class="st5" d="M368.3,176c3.3,6.4,4.5,15.9,3.2,25.2c0,0.3-0.1,0.7-0.2,1l-1.6,1c0.1-0.8,0.3-1.5,0.4-2.2
							c1.3-9,0.1-18.3-3.1-24.4c-5-9.7-2-20.5,9.7-35c6.8-8.4,2.7-20.7,2.6-20.8c-0.1-0.4,0.1-0.7,0.4-0.9c0.4-0.1,0.8,0.1,0.9,0.4
							c0.2,0.5,4.4,13.1-2.9,22.2C366.5,156.5,363.6,166.9,368.3,176z"/>
					</g>
				</g>
			</g>
		</g>
		<g>
			<g>
				<path class="st1" d="M412.9,205.6c2-1.6,4.2-3.1,6.7-4.4c32-16.3,27-28.1,22.8-49.4c-4.2-21.4-12.1-24.7,8.9-47.4
					C472.4,81.6,464.7,52,464.7,52s-18.2,36.7-41.6,40.1c-23.4,3.3-25.3,23.8-22.7,38.5c2.6,14.8-17.1,18.6-27,28.4
					c-7.1,7.1-7.6,32.9-7.3,46.6H412.9z"/>
			</g>
			<g>
				<g>
					<path class="st2" d="M377.1,205.6c6.3-11.5,15.6-21.4,24.5-25.9c14.5-7.3,20.3-22.9,18.7-50.7c-0.9-16.1,14.8-27.3,15-27.4
						c0.5-0.3,0.6-1,0.2-1.4c-0.3-0.5-1-0.6-1.4-0.3c-0.7,0.5-16.8,12-15.8,29.2c1.5,26.8-3.9,41.8-17.6,48.7
						c-9.6,4.9-19.3,15.2-25.9,27.6c0,0,0,0,0,0.1L377.1,205.6L377.1,205.6z"/>
				</g>
			</g>
		</g>
	</g>
	<g id="laptop">
		<g>
			<g>
				<path class="st6" d="M454.7,165v180.9c0,7.5-6,13.5-13.5,13.5H132.9c-7.5,0-13.5-6-13.5-13.5V165c0-7.5,6-13.5,13.5-13.5h308.3
					C448.6,151.5,454.7,157.6,454.7,165z"/>
				<path class="st7" d="M439.8,174.2v162.5c0,4.8-3.9,8.7-8.7,8.7H142.9c-2,0-3.9-0.7-5.4-1.9c-0.4-0.3-0.8-0.6-1.1-1
					c-1.4-1.5-2.2-3.6-2.2-5.8V174.2c0-4.8,3.9-8.7,8.7-8.7h288.2c1.6,0,3.1,0.4,4.4,1.2c1.2,0.7,2.2,1.7,3,2.9
					C439.3,171,439.8,172.5,439.8,174.2z"/>
			</g>
			<path class="st8" d="M486,352.2v1.2c0,5.8-1.8,11.1-5,15.4c-4.8,6.6-12.6,10.9-21.3,10.9H114.4c-8.8,0-16.6-4.3-21.3-10.9
				c-3.1-4.3-5-9.7-5-15.4v-1.2H486z"/>
			<path class="st9" d="M242.4,352.2v0.3c0,2.1,1.4,3.8,3.1,3.8h81.2c1.7,0,3.1-1.7,3.1-3.8v-0.3H242.4z"/>
			<g>
				<path class="st10" d="M439.8,174.2v9.6H134.3v-9.6c0-1.8,0.6-3.6,1.6-5c1.6-2.2,4.2-3.7,7.1-3.7h288.2c2.9,0,5.5,1.5,7.1,3.7
					C439.2,170.7,439.8,172.4,439.8,174.2z"/>
				<path class="st11" d="M366,177.6H204c-0.4,0-0.8-0.3-0.8-0.8v-3.3c0-0.4,0.3-0.8,0.8-0.8h162c0.4,0,0.8,0.3,0.8,0.8v3.3
					C366.7,177.2,366.4,177.6,366,177.6z"/>
				<path class="st6" d="M164.1,175.2v1.8c0,0.5-0.6,0.8-1,0.6l-1.6-0.9l-1.6-0.9c-0.4-0.3-0.4-0.9,0-1.2l1.6-0.9l1.6-0.9
					c0.4-0.3,1,0.1,1,0.6V175.2z"/>
				<path class="st6" d="M172.2,175.2v1.8c0,0.5,0.6,0.8,1,0.6l1.6-0.9l1.6-0.9c0.4-0.3,0.4-0.9,0-1.2l-1.6-0.9l-1.6-0.9
					c-0.4-0.3-1,0.1-1,0.6V175.2z"/>
			</g>
			<path class="st10" d="M438.2,169.3H135.8c1.6-2.2,4.2-3.7,7.1-3.7h288.2C434.1,165.6,436.7,167,438.2,169.3z"/>
			<path class="st12" d="M377.2,331.5H192.7c-3.6,0-6.5-2.9-6.5-6.5l0,0c0-3.6,2.9-6.5,6.5-6.5h184.6c3.6,0,6.5,2.9,6.5,6.5l0,0
				C383.8,328.6,380.9,331.5,377.2,331.5z"/>
		</g>
	</g>
	<g id="charge">
		<g>
			<path class="st13" d="M500.1,352.7c-1.7,6.7-6.5,11.7-13.8,14.6c-1.9,0.8-3.8,1.3-5.4,1.6c0.1-0.1,0.1-0.2,0.2-0.2
				c1.1-1.6,2.1-3.3,2.9-5.1c4.8-1.8,10.3-5.2,12.1-12c1.7-6.5-1-16.3-6.9-24.9c-4.6-6.8-15.2-18.6-33.6-20.8
				c-16.1-2-26.5,0.5-35.7,2.6c-7.8,1.8-15.2,3.6-24.3,2c-6.6-1.2-11.7-2.9-16.2-4.3c-8.3-2.7-13.8-4.5-22.4-1
				c-14.6,6-21.2,30.9-21.2,31.1l-4.1-1.1c0.3-1.1,7.1-27.2,23.8-34c10.1-4.2,16.9-1.9,25.4,0.9c4.4,1.4,9.3,3.1,15.6,4.2
				c8.2,1.4,14.9-0.1,22.6-1.9c9.6-2.2,20.4-4.8,37.2-2.7c7.9,1,15.2,3.7,21.8,8c5.7,3.8,10.9,8.8,14.8,14.6
				C499.2,334.1,502.1,345,500.1,352.7z"/>
			<g>
				<path class="st3" d="M295.3,375.7l9.5-30.1c4.1-12.8,17.8-19.9,30.6-15.9l0,0c12.8,4.1,19.9,17.8,15.9,30.6l-9.5,30.1
					C322.4,384.3,314.6,381.8,295.3,375.7z"/>
			</g>
		</g>
		<g>
			<g>
				<g>
					<path class="st14" d="M290.5,404.8c0,0.8-0.3,1.6-0.9,2.1c-0.5,0.5-1.3,0.9-2.1,0.9h-11.9v-6h11.9
						C289.2,401.8,290.5,403.1,290.5,404.8z"/>
				</g>
				<g>
					<path class="st14" d="M290.5,426.1c0,0.8-0.3,1.6-0.9,2.1c-0.5,0.5-1.3,0.9-2.1,0.9h-11.9v-6h11.9
						C289.2,423.1,290.5,424.5,290.5,426.1z"/>
				</g>
				<g>
					<g>
						<rect x="275.6" y="401.8" class="st13" width="5.4" height="6"/>
					</g>
				</g>
				<g>
					<g>
						<rect x="275.6" y="423.1" class="st13" width="5.4" height="6"/>
					</g>
				</g>
			</g>
			<g>
				<path class="st13" d="M228.2,411.9l-0.2,4.7c-49.5-1.6-88-5.3-114.2-10.6c-22.5-4.6-36.6-10.6-43.1-18.1
					c-3.3-3.9-4.7-8.3-4.1-13.2c1-8.2,8.3-14.2,21.6-18c0.2,1.6,0.5,3.2,1,4.7c-9,2.6-17,6.9-17.9,13.9c-0.4,3.5,0.6,6.6,3,9.5
					c5.7,6.7,19.3,12.2,40.4,16.6C140.7,406.6,178.9,410.2,228.2,411.9z"/>
			</g>
			<g>
				<path class="st3" d="M275.6,439.8H244c-13.5,0-24.4-10.9-24.4-24.4l0,0c0-13.5,10.9-24.4,24.4-24.4h31.6
					C275.6,411.3,275.6,419.5,275.6,439.8z"/>
			</g>
		</g>
	</g>
	<g id="icons">
		<g>
			<g>
				<path class="st3" d="M344.2,126.2c0-3.6,3-6.6,6.6-6.6s6.6,3,6.6,6.6c0,3.6-3,6.6-6.6,6.6S344.2,129.8,344.2,126.2z
					 M346.2,126.2c0,2.5,2,4.5,4.5,4.5s4.5-2,4.5-4.5s-2-4.5-4.5-4.5C348.3,121.7,346.2,123.7,346.2,126.2z"/>
			</g>
			<g>
				<path class="st3" d="M322.1,97.9c0-3.6,3-6.6,6.6-6.6s6.6,3,6.6,6.6s-3,6.6-6.6,6.6C325,104.5,322.1,101.5,322.1,97.9z
					 M324.1,97.9c0,2.5,2,4.5,4.5,4.5s4.5-2,4.5-4.5s-2-4.5-4.5-4.5C326.2,93.3,324.1,95.4,324.1,97.9z"/>
			</g>
			<g>
				<g>
					<g>
						<path class="st8" d="M324.1,129.5c0.6,0,1-0.5,1-1v-4.6c0-0.6-0.5-1-1-1c-0.6,0-1,0.5-1,1v4.6
							C323.1,129.1,323.6,129.5,324.1,129.5z"/>
					</g>
					<g>
						<path class="st8" d="M324.1,137.5c0.6,0,1-0.5,1-1v-4.6c0-0.6-0.5-1-1-1c-0.6,0-1,0.5-1,1v4.6
							C323.1,137.1,323.6,137.5,324.1,137.5z"/>
					</g>
				</g>
				<g>
					<g>
						<path class="st8" d="M317.7,131.2h4.1c0.6,0,1-0.5,1-1c0-0.6-0.5-1-1-1h-4.1c-0.6,0-1,0.5-1,1
							C316.7,130.8,317.1,131.2,317.7,131.2z"/>
					</g>
					<g>
						<path class="st8" d="M326.4,131.2h4.1c0.6,0,1-0.5,1-1c0-0.6-0.5-1-1-1h-4.1c-0.6,0-1,0.5-1,1
							C325.4,130.8,325.9,131.2,326.4,131.2z"/>
					</g>
				</g>
			</g>
			<g>
				<g>
					<g>
						<g>
							<path class="st8" d="M352,99.1c0.6,0,1-0.5,1-1v-4.6c0-0.6-0.5-1-1-1c-0.6,0-1,0.5-1,1V98C351,98.6,351.5,99.1,352,99.1z"/>
						</g>
						<g>
							<path class="st8" d="M352,107.1c0.6,0,1-0.5,1-1v-4.6c0-0.6-0.5-1-1-1c-0.6,0-1,0.5-1,1v4.5C351,106.6,351.5,107.1,352,107.1
								z"/>
						</g>
					</g>
					<g>
						<g>
							<path class="st8" d="M345.6,100.8h4.1c0.6,0,1-0.5,1-1c0-0.6-0.5-1-1-1h-4.1c-0.6,0-1,0.5-1,1S345.1,100.8,345.6,100.8z"/>
						</g>
						<g>
							<path class="st8" d="M354.4,100.8h4.1c0.6,0,1-0.5,1-1c0-0.6-0.5-1-1-1h-4.1c-0.6,0-1,0.5-1,1
								C353.3,100.3,353.8,100.8,354.4,100.8z"/>
						</g>
					</g>
				</g>
			</g>
		</g>
		<g>
			<g>
				<g>
					<path class="st3" d="M153.1,80.9c0-3.6,3-6.6,6.6-6.6s6.6,3,6.6,6.6s-3,6.6-6.6,6.6C156,87.5,153.1,84.6,153.1,80.9z
						 M155.1,80.9c0,2.5,2,4.5,4.5,4.5s4.5-2,4.5-4.5s-2-4.5-4.5-4.5C157.2,76.4,155.1,78.4,155.1,80.9z"/>
				</g>
			</g>
			<g>
				<path class="st8" d="M127.7,93.3c0-3.6,3-6.6,6.6-6.6s6.6,3,6.6,6.6s-3,6.6-6.6,6.6C130.6,100,127.7,97,127.7,93.3z M129.7,93.3
					c0,2.5,2,4.5,4.5,4.5s4.5-2,4.5-4.5s-2-4.5-4.5-4.5C131.8,88.8,129.7,90.8,129.7,93.3z"/>
			</g>
			<g>
				<g>
					<g>
						<path class="st3" d="M123.9,111.1c0.6,0,1-0.5,1-1v-4.6c0-0.6-0.5-1-1-1c-0.6,0-1,0.5-1,1v4.6
							C122.8,110.7,123.3,111.1,123.9,111.1z"/>
					</g>
					<g>
						<path class="st3" d="M123.9,119.1c0.6,0,1-0.5,1-1v-4.6c0-0.6-0.5-1-1-1c-0.6,0-1,0.5-1,1v4.6
							C122.8,118.7,123.3,119.1,123.9,119.1z"/>
					</g>
				</g>
				<g>
					<g>
						<path class="st3" d="M117.4,112.9h4.1c0.6,0,1-0.5,1-1c0-0.6-0.5-1-1-1h-4.1c-0.6,0-1,0.5-1,1S116.9,112.9,117.4,112.9z"/>
					</g>
					<g>
						<path class="st3" d="M126.2,112.9h4.1c0.6,0,1-0.5,1-1c0-0.6-0.5-1-1-1h-4.1c-0.6,0-1,0.5-1,1
							C125.1,112.4,125.6,112.9,126.2,112.9z"/>
					</g>
				</g>
			</g>
			<g>
				<g>
					<g>
						<g>
							<path class="st8" d="M142.4,68.4c0.6,0,1-0.5,1-1v-4.6c0-0.6-0.5-1-1-1c-0.6,0-1,0.5-1,1v4.6
								C141.4,67.9,141.9,68.4,142.4,68.4z"/>
						</g>
						<g>
							<path class="st8" d="M142.4,76.4c0.6,0,1-0.5,1-1v-4.6c0-0.6-0.5-1-1-1c-0.6,0-1,0.5-1,1v4.6
								C141.4,75.9,141.9,76.4,142.4,76.4z"/>
						</g>
					</g>
					<g>
						<g>
							<path class="st8" d="M136,70.1h4.1c0.6,0,1-0.5,1-1c0-0.6-0.5-1-1-1H136c-0.6,0-1,0.5-1,1S135.4,70.1,136,70.1z"/>
						</g>
						<g>
							<path class="st8" d="M144.8,70.1h4.1c0.6,0,1-0.5,1-1c0-0.6-0.5-1-1-1h-4.1c-0.6,0-1,0.5-1,1
								C143.7,69.6,144.2,70.1,144.8,70.1z"/>
						</g>
					</g>
				</g>
			</g>
		</g>
	</g>
</g>
</svg>
